<svg width="40" height="40" viewBox="0 0 40 40" fill="none" xmlns="http://www.w3.org/2000/svg">
<g id="uil:pen">
<path id="Vector" d="M36.6667 12.0666C36.6679 11.8473 36.6259 11.6298 36.543 11.4268C36.46 11.2237 36.3378 11.039 36.1833 10.8833L29.1167 3.81661C28.9609 3.66214 28.7762 3.53994 28.5732 3.45699C28.3701 3.37405 28.1527 3.33201 27.9333 3.33328C27.714 3.33201 27.4966 3.37405 27.2935 3.45699C27.0904 3.53994 26.9057 3.66214 26.75 3.81661L22.0333 8.53328L3.81667 26.7499C3.6622 26.9057 3.53999 27.0904 3.45705 27.2934C3.37411 27.4965 3.33207 27.7139 3.33333 27.9333V34.9999C3.33333 35.442 3.50893 35.8659 3.82149 36.1785C4.13405 36.491 4.55797 36.6666 5 36.6666H12.0667C12.2999 36.6793 12.5332 36.6428 12.7514 36.5596C12.9696 36.4763 13.1679 36.3481 13.3333 36.1833L31.45 17.9666L36.1833 13.3333C36.3355 13.1717 36.4594 12.9858 36.55 12.7833C36.5661 12.6504 36.5661 12.5161 36.55 12.3833C36.5578 12.3057 36.5578 12.2275 36.55 12.1499L36.6667 12.0666ZM11.3833 33.3333H6.66667V28.6166L23.2167 12.0666L27.9333 16.7833L11.3833 33.3333ZM30.2833 14.4333L25.5667 9.71661L27.9333 7.36661L32.6333 12.0666L30.2833 14.4333Z" fill="white"/>
</g>
</svg>
